<mxfile host="app.diagrams.net" modified="2024-02-04T19:05:13.236Z" agent="Mozilla/5.0 (Macintosh; Intel Mac OS X 10_15_7) AppleWebKit/537.36 (KHTML, like Gecko) Chrome/120.0.0.0 Safari/537.36" etag="K5QH9uCj2e7wk8jl_tB1" version="23.1.1" type="device">
  <diagram name="Page-1" id="O2AErxn81-rM4DP0TScB">
    <mxGraphModel dx="954" dy="640" grid="0" gridSize="10" guides="1" tooltips="1" connect="1" arrows="1" fold="1" page="0" pageScale="1" pageWidth="583" pageHeight="827" math="0" shadow="0">
      <root>
        <mxCell id="0" />
        <mxCell id="1" parent="0" />
        <mxCell id="wpnz1aN1on4Ttcx_S6u4-14" style="edgeStyle=orthogonalEdgeStyle;rounded=0;orthogonalLoop=1;jettySize=auto;html=1;" edge="1" parent="1" source="wpnz1aN1on4Ttcx_S6u4-3" target="wpnz1aN1on4Ttcx_S6u4-10">
          <mxGeometry relative="1" as="geometry" />
        </mxCell>
        <mxCell id="wpnz1aN1on4Ttcx_S6u4-18" value="Data Processing&lt;br&gt;EDA and&lt;br&gt;Web App development" style="edgeLabel;html=1;align=center;verticalAlign=middle;resizable=0;points=[];" vertex="1" connectable="0" parent="wpnz1aN1on4Ttcx_S6u4-14">
          <mxGeometry x="-0.2885" y="-1" relative="1" as="geometry">
            <mxPoint as="offset" />
          </mxGeometry>
        </mxCell>
        <mxCell id="wpnz1aN1on4Ttcx_S6u4-3" value="" style="shape=image;verticalLabelPosition=bottom;labelBackgroundColor=default;verticalAlign=top;aspect=fixed;imageAspect=0;image=data:image/png,iVBORw0KGgoAAAANSUhEUgAAARwAAACxCAMAAAAh3/JWAAAA8FBMVEX///9kZGQ0bp5GhbdgYGBdXV3/6HJZWVn/1j49eqtWVlaOjo6srKxeXl7/2kz/4mL29fXMzMx8fHzv7+/Z2dlAfq9oaGj/31lzc3O9vb3ExMT/5Wo5daX/3VP/42T/4F0WYZf/6oD/887i4uIuerH/1Cy1tbWioqKGhoaYmJhVjbvo6Oj/0yb/3k7Kysr/1TrN2eT+55nA0eIhbaRGRkaApsl0mbv++++uxduNr84rdq7b5OxdibFpmMF7m7o5OTn+7qH/763++N3/8cJojbD+6oeeudT/213+44v/4H22yNoAV5L+6Kb+7LT+3Wv//PMSucgWAAAKTElEQVR4nO2cCVebShuAJ8qEOCEKWUnUaM0CMWqsqa1rb1vvov1s7///N98sEGZgiKDGpLfvc07PiUBgeHjnnY0UIQAAAAAAAAAAAAAAAAAAAAAAAAAAAAAAAAAAAAAAAAAAAAAAAAAAAAAAAIDSs0bLLsKKMvYMYpaXXQqE7NOLy9vDRp9yddVfv728OLWXXSZkkULBWLqci8N+v9FYFzQoGxtXV9OP10suloWXL+es31+PaAg5lJ3p+XILtgJyvl+tx90EcnamN0st2fLl2Cxs+oe3fSluQjk708/LLNry5VxQKw2aXexDNW6Ym52d/WXmnTeQ026fdNo1p0c/djQt0DmNmzP2odZPutlZe9vQqZdr0l9vIKfeazp15Pq03/BHL7n7lsoRzjRudtamCy2bQs8yCHljOQhV6c1XqRzL18ihtakvSqRzs7a/4LJF2B8qhcIS5NArVjsO8i29nMbf7MNpX+Nmbf/N+oI27fItSY5rj3ptTy9nvX9Zs7/3o4YqcvObyEG+Z6fJWWfjBqWHE7r578tx6RWbqO2iUZqcsBFvxCrVbyDHDv4h3Y0exvrFqpv/vpy5HKoDh4bq5jeXE+dGcQNyFG4UN/nk2I41qjaNplse1hL7Om58U41hhx/HJpVj9vhGsV+VM647jiZnMhyv2sQGveo4pWDjjuc3MW76Xj3DbZydr/dDrhjTENUNk7Pd5RS/fJp/znaVmNgw6C0WDEx8RU/HJ5jEv4AJIR9O+McqIcwNtUPYRvHdSE7PcukBFFJO+vGIWQmv6jrJctVHmODgiIqJh0+paSRmcDQNVSjnXVGwvfd1zjk9gg1+eYxFOUhHKh+h28z4V5pMhrgbn38nhKhyHJfgcJdBPPUkjsn3GeKpFEg1Fur0y4YolvBTMN25leFcVqMdUWnlzLNzwouISaHsWVYZ8/KSdiSHV5k5ctIjZ1RzWTLCNGyEIXVWmU2lFgzT9EflJqnw8JHr1rhKxG5rOPSqRDw2Y46dyxxulMjZ3m5905/SY0U0DSssV5twO7Mq8KQce5ZzbDXnFFzToOHStJxer+NyPaZUMbgb0xWZpOaJy46l3QYLpjDR1Mr8CRjVVDenedxEcrYZ3aL2lLyIFakaoR4vZiGzHJTWWvG79cO7s0hBOcjh37Giy4qbD//02Z9NOQcPxQlS0/J6HjehHKGm293Vhk6ZPh9sKZtOWLlm214iB8t3N2I1p+LJXzHlC/OHUgkrXpWVS35m9ASGfII4Z8nASYw29XK63a2t1peMcpDLShE2UC+QEzsvlkODXddQewhDLEUGl9NW9vOrpNar8xQ3G1o3bD5HhA13s7XXyipHhE77pXLinUAuLDhqTDRVhMtzU+WIdjHR5QpoJNzMqVQUhLpBlWJu9o51nR2dHCQ/oteT0xNpm3/2WB1rxk4qQqeXKofvT5FT68fczEs4lM/o09YsbPb2Wsd3WeVUeb2yX1mOSDMiWthtVuKXrZGoLurkdObIkdqqLG72T9GP7ixs9lqt4/dZ5ViV6DZeTw6K5PDkaya6xOyswd3nlXPRyONm7U9aq7rcDVfTau3+zCqHlyLorL+iHHMmp43VTk3AKGoJ8sq51CWcVDc7CH3disKmtbu7W8oqhwsxRouTw1NOYsAWpOzxc+Tc5nCzf4PQt1bgpiXc7Jb+zSiHp07DX5ycsqGVwwNKHJFXzqHiZrYoPp3uJ/jzlLvZiqoUZbOkaa60cnhDGxRjIXJ4o5w4qbh7cdq8cnQj8enNxXXNVhHzLF931bDZ3dwsafrIWjm82Qha2sXJwa8vR0nGG6f6Qz/dbe8l3GxODpJHLkdOSrV6gZzEfPr0I9168OWvd3G6rT0lE3M1OeQsvFqNXj3n3MaTMXXzjQ4QihLhKDMZNpRB1molEnJ1cXLkkUTsW8HmvHLOG6qbBkJ3W0UVaSglZWJBaZA1ITuLbspPoo8yL+jn/N1QGqrpKfq2pVWjq1LUTWmgOalWzlAaUy9EDq+38XtHyI16EHnlnPWVhor2ZIqauFH6xIqb0j9Z5fB8KQ8fEunhhXLEADyxdEOijnleOdfKmvj0Ozro6tVow6ZUmmQeW4l5ZLRAOdousrhU7Vly0JXcM55eoy+JXJySibmb0kDTWGnl1KUOclCt4qsqL5XD65V5ou73jGimJLec2w1p1DC10V9ZM7FAl3K0cngXjQS3zvs8iclJnRx5HPmUHN3ElS1PgOWWc9GXRlRTaeHlqUzMmdynyYlNrDhSLweJ9JBodgvqlIM0U5NRDnduKnfPJpnDeM0vx55Ko01ZzrauSm2qbkpHqRPsBdOTloP4Oos0hRksJMh26nyWWZJTjSt+Ug6yzFi0nXBdYUFyy0GfJTnRqlSWsKGBo2urAjmFCvHUdStTqkfBauOspPWqWLyR5HTMWHQ9LQf5WPlzqM4q55cjQmdHI2duJhaBo0vHgRz23InrtU/ansHjBvvSIWIwUcDmaNjpDMvYDNZ/5Zm8pqF2XDLIQXydj5SdGrLHbZfrjTJ0fjnobDqbwgnlZMjEPBs/6M/Il0jKTVa0CjZxRWQYXzmmJ5bQCwbGfDXdwKYbk1Pjh2Di+nZmOags1oPZKjKfU5b3PUMO+j4Np7eEnGxVirrRV6qgtRqithHGA7vFeNfV9kkl2GlUTOK2+SyzMgccHhK+SEAqlcTvrQiuVJTlGKcwu6qByUheB3fZsXE59KR4jhx0/ZG/bbK//z8qZ1vtEx9TAiMTymDG0eAx7XyzptwZYfamCCGu7kWPnlcg/AlXvRN2D6wTFxsb9Tw3epHA8SzLizum2yxPnTh2RhVCWOxUY68FDdkJYoOvOtsW77DGuD7lICpHCZvjgzRS3iFgyP2cWr1eT3nHCPEXBqJHq5HDj7Hzv01mj3u9xPj85bxTM/Hxc86hHT48DRs/J1cPVomimomP36toO31xnimHfS05H7NKFGOZWOoNM440iw0JnimHNSbJmbxVoqhvwENDi5TDGpn4UvdqUUxpwCeDyYLl2Cvx49+5FPd0feLJ7o+7nwMmJ8s5nieHzaMmJ/JWiqK2T8xXxN9PFiqnuvKNFdpuafrEwRLDYJFy2ubcVxdXgne6TBwo2ZwsTg4fuJP07uJK8PVYM5QKIueoNNG9cZIgv5waf9GTPPU2+bL5t6Sb8ONDzHsaOLoXuRLklFM78fnr0iR/6//W/ChpRuCT0uPjP4PSIFPg5JDT61i+IX4IgCtZfqSxbN5PkrMTtJtD+zmpcxQx2HxcNjkjEvwywvwFwoZzVyrF3XA/R7o1Kh2OT3A2OWwJ18AmqXaePnZVeCxN4mYGRw9P/IRIxm43094KV4/7QJq+5Sz//+bJxcF96YjWpImY4DoaPGTKxDK/2A3n5NPB4/3Dz58P9493OWIGAAAAAIAVwNax7EKtBMqb67Ua+JGItLD/NGE8Fv+LAtjh2IqdAJAToE04oCYCzAAAAAAAAAAAAAAAAAAAAAAAAAAAAAAAAAAAAAAAAAAAAAAAAAC/LP8HZVRoO1XFki0AAAAASUVORK5CYII=;" vertex="1" parent="1">
          <mxGeometry x="280" y="317.39" width="132.54" height="82.61" as="geometry" />
        </mxCell>
        <mxCell id="wpnz1aN1on4Ttcx_S6u4-12" style="edgeStyle=orthogonalEdgeStyle;rounded=0;orthogonalLoop=1;jettySize=auto;html=1;entryX=0.5;entryY=0;entryDx=0;entryDy=0;" edge="1" parent="1" source="wpnz1aN1on4Ttcx_S6u4-4" target="wpnz1aN1on4Ttcx_S6u4-3">
          <mxGeometry relative="1" as="geometry" />
        </mxCell>
        <mxCell id="wpnz1aN1on4Ttcx_S6u4-16" value="Read data&lt;br&gt;from csv" style="edgeLabel;html=1;align=center;verticalAlign=middle;resizable=0;points=[];" vertex="1" connectable="0" parent="wpnz1aN1on4Ttcx_S6u4-12">
          <mxGeometry x="-0.2112" relative="1" as="geometry">
            <mxPoint as="offset" />
          </mxGeometry>
        </mxCell>
        <mxCell id="wpnz1aN1on4Ttcx_S6u4-4" value="" style="shape=image;verticalLabelPosition=bottom;labelBackgroundColor=default;verticalAlign=top;aspect=fixed;imageAspect=0;image=https://www.shutterstock.com/image-vector/csv-file-icon-datasheet-vector-600nw-2251264157.jpg;" vertex="1" parent="1">
          <mxGeometry x="40" y="197.39" width="120" height="120" as="geometry" />
        </mxCell>
        <mxCell id="wpnz1aN1on4Ttcx_S6u4-13" style="edgeStyle=orthogonalEdgeStyle;rounded=0;orthogonalLoop=1;jettySize=auto;html=1;entryX=0.5;entryY=1;entryDx=0;entryDy=0;" edge="1" parent="1" source="wpnz1aN1on4Ttcx_S6u4-5" target="wpnz1aN1on4Ttcx_S6u4-3">
          <mxGeometry relative="1" as="geometry" />
        </mxCell>
        <mxCell id="wpnz1aN1on4Ttcx_S6u4-17" value="Read data&lt;br&gt;from db tables" style="edgeLabel;html=1;align=center;verticalAlign=middle;resizable=0;points=[];" vertex="1" connectable="0" parent="wpnz1aN1on4Ttcx_S6u4-13">
          <mxGeometry x="-0.1889" y="-2" relative="1" as="geometry">
            <mxPoint as="offset" />
          </mxGeometry>
        </mxCell>
        <mxCell id="wpnz1aN1on4Ttcx_S6u4-5" value="DB" style="shape=cylinder3;whiteSpace=wrap;html=1;boundedLbl=1;backgroundOutline=1;size=15;fillColor=#66B2FF;" vertex="1" parent="1">
          <mxGeometry x="60" y="438.69" width="80" height="80" as="geometry" />
        </mxCell>
        <mxCell id="wpnz1aN1on4Ttcx_S6u4-15" style="edgeStyle=orthogonalEdgeStyle;rounded=0;orthogonalLoop=1;jettySize=auto;html=1;entryX=0;entryY=0.5;entryDx=0;entryDy=0;" edge="1" parent="1" source="wpnz1aN1on4Ttcx_S6u4-10" target="wpnz1aN1on4Ttcx_S6u4-11">
          <mxGeometry relative="1" as="geometry" />
        </mxCell>
        <mxCell id="wpnz1aN1on4Ttcx_S6u4-10" value="Web Application&#xa;in Streamlit" style="shape=image;verticalLabelPosition=bottom;labelBackgroundColor=default;verticalAlign=top;aspect=fixed;imageAspect=0;image=https://icon-library.com/images/web-app-icon/web-app-icon-13.jpg;" vertex="1" parent="1">
          <mxGeometry x="600" y="278.69" width="160" height="160" as="geometry" />
        </mxCell>
        <mxCell id="wpnz1aN1on4Ttcx_S6u4-11" value="User" style="shape=image;verticalLabelPosition=bottom;labelBackgroundColor=default;verticalAlign=top;aspect=fixed;imageAspect=0;image=data:image/png,iVBORw0KGgoAAAANSUhEUgAAAOEAAADhCAMAAAAJbSJIAAABAlBMVEX///8AeK0AWoLv7+/R0dH09PQAcaIAdKcAWH319fXPz88AY476+vq5ubnm5uapqanW1tbBwcGysrKKioqfn594eHimpqaOjo6Xl5fp6end3d3IyMiBgYHb29u9vb0AapoAcqoAbKcAV4AAUXwAMVAASngATG8APV4AN1YALEoAYY8ASXIAPVdhcn0ASmx1dXWgwdebs8OJkpeEjZNUaXa2z+A1Y3+JkJVSgJ1IYXFxfofp8fZdm8CYvNRvpMbE2Oba5++vwc5KboUoTWI9V2gaQ1osVWwZUnBkf5Aog7N/kJtEjrmCr8xylaxXdoo7cpOSrL5Ed5ZeiKO9zdd9nbJlnsKxgSx/AAAY5UlEQVR4nNWda2PaxhKGsSUlRtF1kXVHxoABXyAJkCYmp40T222Spu1pk/P//8qZlQTalQRIKwHufGhS7IAe5vLOrKRVo7EHkySp2RSwcdjCvzWb8Oo+Pny3hsFiJPjDcRwFG/wZgka4gHrow2QzCbMBmOPynoxMw7Yty2qBwR+2bRgqknWxDbgx578LU2piOEfzkAFQIZBhmqYaG/wVXsDI8DMT6bwbcQr/DkrsO4FzPdUO0UwVId3j2yEEzj4cr47iupqoy0gFVBs4DaRrbkj51H0pAZ3g6marFbKBd5zmxt/nFM2TgRMwbTWmfLquxHgcj+BYDQynbGSjjGt7SMWUBvJc5alCNgFPVCHgTFVvcwz/3sWU8PUgr608vXDF7tMwnopEh/1tOC0ASN+WxRDy6TCC+5TAwng8g/Nok1wdQxpRThYP9F0adp/ZgqovVsaLTGrLuBCj0JFCPe9Z4Wig9ns2uE9X6nxbTgQl9VVPUw5ddUDcdMsyEV9/OLmyCcHqae4h/Qh8AQ5Pt8gvQyMQtaW4KS1UKB1dtQ/KCJ2ZDjItbw5PiXM1D7oX3L7Y09CiTkcOPOgHNh+64K0Y919zJE7wrM18gsLrIHGzxfz2/qYPNoot/Pvjw3w8gwAIRHdDhWpiRlPE+bjfdJQEQbMtcz1f2KVMF7eP/f5wOBkMTjI2GEyGw9HlzcN4hrvStSoKjJaPeA1iezcs+Z8qOGZrbf5JiofM2fz+cgRsCdIxtheRHUcWkk6G/ZvbBVC214Qsh/vcgG/vL1QhQPWWofL5P3R1NB3fXyZwK6zQzmJbvRCChpQzVdby/aTIhm97/L5CtSm4tqXqud+noqO389FoOEjBnZ09W2MxLGBORpcPC1PWct9YU+1TCNV9uBEcGMAIkJeAINM24E1iOprtOdhR1vDLIWdIORlePszymwdJN30Lqu/O3dgUFNtWvZyfKIG6eOxTeGdLthy0DChgYsrJqD+3kZaDoSBwo7ZrNwqCBw7MqXtt2ZhfxsF5nPiuAByJGVKeTPr3M+Rlyw52oy1CNu5O/yWOM608B2ro7X3svuOV80rREZQAORjdLFQ9W3VcZPk6Lqo7ilRJcEHjsxKhodkyPBM8BroVJUCeDPvjHMambJyqOFJ3gogj1JQzSdAGvtGAcl8VvBXkMWb0Mh8nqr7F7yZSBQHlRKgiT+/7K77K7kszLlBGdRWI1LCm1g3IcYatttPUunkbxedxbe4jIIHxZpbpnHCkhh1OrXwSp1gGSr8nj8aXO+MLGZ8d9x+MIB2RuvkS1ZyMUGNAJFI54cjTm+Eu+SLGweUYaanjEdVTQ+NrRJQErWUGmU+ZXw7i+rkrvtDOho922o1t1bc13qkLURLElqnTr3GkA3fJh+0460ZFbVm1ITZBJdJFtI0iB+6DD+zZ5NHQaRgOtVpYNWpo4ULAVM3WjcchEaA75sP2AoSDbhY5ZNWDKGUBBXkWltA9OTCyZ8NblY5UIUasGKghIP3OCpr34ww82xcftu6jQedKEyOKFRFxkUl5kFfvlxG6nwBd2dnobUDRYC9qYqVyg2UiBegZN5MDODC0Z8OFTMkGlBurGiLntkw6MvRpf3AoQLDrOV1vuFAX2Rs4TknpoBTMQpHYf4QurfegUmsciuob7IgCZxlUJyPJi8tVCu7fgaF1f6UnVFeNljaYAAXDQOQLTXncjwAPEqGxXf1GI/LmSzxpMMyLkoBsqtluIgLwUHwRIjXF6cYpnhdLVxsQQkslfS9FHjw+NGDWi7Lts8gilFHqq3o6gBlECbUYCipUGVongkUMeKAiSiP+pJKi4ainKiCWSsWmYNoy+YI+u3w6gBiRWnDQzJd4kbFEEx4mIfn73vRJAYJofKKqoG77YqkmHKSeinTe6EdCXwWw0+mcn3c6R/Bf+KNTEbH3mYyxsqnYFGyqjVfUm0FFmeicf/n25u59fDzvP7z65ei8GuX1V7LdciLhLxinkhDYpNRz6H5SCbBz/p832c9+/+b38wqMz68NciYQy6giFgqyVMnzYRXA86NX6z73/c9H7IxnA6pFlVsWLxaL03SM6rN+BcDOlw8bP+0VOyMUVCIyuMJxKgm6RcaoZqzKKANf583WD/z5nBWRrjZhnBapp4LTIr3PoccJM+D5L9u/UYjV31kZr6ci8T7It/kC9VQSTIMsUsskZJgmOp3NAZrYK0bEZwOyYCjRlLHNiZzWIrVeDKUeJ2F5wC/Fe4w7NsKjq09kQul2ixedLU6EMmMSRdgJlZCpynT+U5gPTPrCVnB6X4mi2IT+lN9WbDiPKjPy7ZAxCTuFUpCw35kQn1NxKho+LjabPgaPFES7xk/7jElYGpAV8eoTWU+Rb/KbhwxBJ0cKYRWjpQFLhWhsbIF6PSWySos6mw2AHKUU+pg1Rr8wADYkprWfZ78hwmfINzY5ETekhAsV8zKO0bKf2mFbor07Z0HsfibUzTVO9Q3tacqF8kOo9eVj9LyoDqbtIwvi82uTKDabnchRWdhelZmSH9n5xgjYaLxjSUWq2LQjJ+a/PS6khAvDmYmpmWEGbAgXLLl4bRD1f5MTaS3kZyO2MsMco9he9xgQKSdq6zURtzPJdyGhxwFbmfm9AmCjcdxlQLyekgfuq+DEvMaG00gXapELGcrMXSXCj73j8ohnPxFOFO1WvhPxUEFoJ7MLWbSetONjBkTSiYIaXk2cFQxBIYcK7S2rC6tkITZwYnlEKhN1yxbFnDs5uMAmlBPdM7qQqZuh7ILFi9dGogKKmSsYTYGUCsXus7mw86oy4R9dBsSrP0n3hP13utbQdSa4nbC58Px9ZcIP2ImlEa/VJCx528rWGklQjWTNg1Mv2VxYUSoi6x0zIHa/kod/KmdqDW5JE2hxMWRsuX+ugfCfLgMijBjJO8gtQxRTfQ0nkkGKpYLJhRXFMLKPkRNLIvamSRnRjJaeClMcpIkYKrjnZlo/PK8BsHF3ccyASNYaIRumdJDq86jOlFfeOtIw0ovyiANCzrNhyvFEkEooVvvSgAyrM3n2V5cFsfc1OSuv2akwlQREVFIX9zNMQVqDGmL7Y0VYBvHsU3LxT6aaYrlP5uQoSBnqzFGBsxRF7L+9YxbEayJMQfRFUvQFt6Wu/icOUqYTMVWb0sg+EoQlEMkwFS2bEn1OJ3pSZTpirDP1iEWj8Z0kLI54RlRTxfDJ3hQPTgm+N46CtDxgHT1blrAw4vMBUS3pEapJaUUk90ynQ3dDWBixRwwYsm96iV5wbiuh5/AqKVuQ7oqwKOLV56RrgUQk9ILziDRsz4asQbqbPCyOSC5mQCIGq0TELVtysboHWsEYpHURfswQFkS8RisFbJKKiBfZkgDGacgYpHWpxessYTFEsvtGvrpSRHzmfqWNgsqehnUp/o8cwkKIZCLqLcPj49UaaryP1JAtDaus55MWD4jlEc8+JfUEBv1VqaEKDQ/DL2saVl9KjCyPrxDic2IMVozWstTgtptw7m1YaFgv464DsHnBjEi0poK5KjVNwSDObKBH9jSsSRCzYlEYkSw10NXEpabJEYNFU+2zp2FNpea/awm3Il59TWRP9lUvIqRKqWNUI6xjBE4G4NKIV5+Ti0+SYkr1bO5sWCUNjzrVAd+vS8MCiOQUnPRt1AqGtqhGWPm0Rb7eF0Uki2nbtuJiSokF7tmg0LAC1hGmm4J0KyLRt4VygXdwlATZJoL3dlCJ8Oi86r3HdxuDdBvitblaYHNMP5ILWg7l+0GFQnNUw6o3sQzFgNgzVrKAF03FiJAc8NFNlVIaIlYD3FxntiJ2E0GUMCEPhJTgSwiLRaUb0yquKBZw4SbE7leieTlFoSA2OWJ2woJfpZSGiFUAC7lwAyIp+ciPCAUgXMUuZ9RAWGXA+LuQC9cjkvMTwk0NSD6+Tmi1DMUZo8qEVSb9jwVduBbx6nOydi8vCR3iPkPHDgkrAVY4l792qiiMePVnonyBb0JTExGuNATPv9UJmWW/cIyuRTz7k2xMl4RE4628rYPw6JxtxPhRxoX5iGefsoSckiKs1NIsEe8YAEsk4VpEch0jIuRyCCsJfmyd8qPwh9KAOYg0obFDwvKI2/vRIojZKMWEqUpTD2FZxO9MgBnEbKVJETr1EZYbFcvnYD4iSRjEhKAWJqWHdREenb8uDFi2iq5FvPqTUvxYLVJdW22ER+fvig2L7//aPNaXQCS7NpJw1XkLZp2ER53e9wKAry+6VQApxKvPVOcdEXKGQcxU0HnXR3h0dPH33Ra+7y8qOTCFeEWcy4fpSY86b2pBeFQv4dHxxT+bGL//VdWBNCIxH+IT3WHn3eTIs4focVBD10Yhdi/++pifj+9fv6iFj0DsTYnF7VM5noCRndSf4KFuwqPj427v4t3HtDzevf77olcTX4J4TUyCph8R4rU2ajWxbsIjfAAA2Xv34/X373d3d98/vv7x90WdeAnitUqsJvrROo3E6VZy+psfD2snPIqPodvrAecF/LfXrZduhUhecOLaVrzWRl1aiq9TqJ3waPvh1YRIXqvA23Z8eo1rtwjX4rat/u1L9oVINm2eZcjhmnfYmK7SM5T8HWxztSdEUvBl31yet1CoSzFuoKnZwUZe+0HsTanl0vjck+CYhCDKIBe7INwP4shYRSOWQz06f4gFkYje8WQ3hHtBHCU10zFiOcSEpFxAMa1fLvaFOHggQLBYRIQSxxPXz4bzU5Wtkqoigmp2WQkn46Q78yx7ddkX5xIzcFhqGAk757+/utt0V32Bg+y9u3vN3I0PZ0mhgelwdekep5DTRXA7YSumnfNvYe/57ZwdsXsRrgvc/cHG2Cc8pa5KKS6mZKnhF0OmUnP+y7Jt+LBh26DNR3jx1138Hu//YWA8eSQKTdh3x9e14VJDXC1l949fMGzVctdI7Nv6La42HGDswOX3dFx6Mp7ME0dpSaHBpYbckwZfql86Ec9TZ9Tu1m8btJ7vn9SA9U/Z5SkyDfWWQdxxwbk2cYW0DolYkjDnPMWHL+sY1/DlLHe8LonYJ+5BhI4muUa4wTkqkYhYEcslYv5ZCmDMj9XsocGEnPsW5ZaJSTXkTNzRrK7zFqhE5MzLcoSd3KMDu/tfPmPKfb3ej3Xr46UQh4tkJRGnIXGtfpiIiYOhNS0TppvOM0mvcvfVI/AuLt5tWnEsg9hPrjRpBFQa4kQ0iCtOQC9KEG5bvH//5j+dzBaJse8uun9837JoXHy5v3tP31ASkPdzcw6yiBu/yoTpeZGLS+5e/fIl3PhyZb2L3t8/MqtTeZZ70Xd+kBK330HbTd2e1+Q8Ys4Pw7QgYYntkt7ffXjz6udv3779/OrNh7viO50VPfVNBiluSql71ySsF4mWaItR4TAtfKDM1izmxME9sa0CaEXqNllOQRZ5G23/5KxYjNZzg8VmK1ZthotkjFfSQYr1wvOJMNXnk0JhWtNdsdvsXZE4HRH3V+Ig9ej7gCWubRPVFHrTQmHKuONVWStyKdhknsQgrqSZLQdwmJJxfD8oEKY13fa73TZc2760vp30nZlKik3gRJ/cWWI2KhKmewJcbiSxwag6g+U+s6cChKlBnKBpqjfHW8N0by7ceu03ZOEsyTEuL0hxmOrEJfsNbzHcKvqdvcBFtoWwS8y+DRF60kyQYtHXLEISObW/zYm17PJR1LZkItnP4KsuabmPDESfqjX6eLil1lS+Zr2MbS6nJzfJJfphnQnydhbkHKg1RKuqXm6uNZ3/7Yctto2aSLlQhjrj5W1FC7VGJfqarU6s6X7Rorb+dq/QhUlIOjD75tQZbJzikYIBmbjRiZ3dU1G2IUwpFwa4n8nfdA9qjUEsZuByuqHW7KlhS2z9RfyDRyILI6nI33MvciKxWQa6OX4yQbopTEdT4rFpupUrFZEJKSeKs9F6J9aym1AZk9aF6eCB0MKlC9c9pt3VSSdCd9pdS1jPbkJlbN0dX31yb8/IhWt3Ek470TUu15XTvcp9ZGtEfzgmBMDZ7EKs+h6piY1gPHwqabhuED65Iep/WEg37SMcOpHURAE9vliThvXs8VHG8tuaPrnZtRJq4cYNvTlX9Mmddvlpf02x2R3JWsuL0smc2rAc2pkNWYgNnKi2yH8jzye5Qbr/QpO76Na9IZNKM7a6EGsi3yKuzMCPt8iL05q2hyhnOZrfJx9wISHfXNfOJAaNTUCuScH3khenexx+E8uOwcMxGW+63Qo70i1LsZzD2+RWrQ19kVNPa9rEpJxluprBPbnhvIKVQtz6fAs8YninZLGR0ENW9w8gFtmbak5G5HMcoMxgpdj+jJIGx/HIJ1pZUNHHjO7XtJlQOUvfVdOfko808mDwlYs8ZyYsNhYVp5oxSo9RB5DDjCAOx+QjRCFGVbnYs4JwsYE4Jf3vzdKp+AQIh7fUs+VwjAbby0xkUZySvxosrlOE+1yjWRo1XUzuqeeK6TaO0YLP7MLtqWZbZAhIaN59WoSDGyrK2ibU0RJPI4U4FX2DfFgUlyqoe58OQ0sIT/rUY+UE1TeKxyg2iFP9lHpum6P+ekUinmXai33aCV1GG8iygoJ1NDYJ6qlKp6Ki/kYjdg8KSD1qWgehQGK5x8k2ubZmWdSTSF0zhXhyKMBuf0YB8lESlnoOaThk8D71ADbI5qeBeNKfUc/SBiU0IQlLPks2TEVQRbLaPBHENCB+vHrRZoYynIrBKf186Lb608ER0zkooRZMFCWTcIno8oguqA1X/al7WMRBChA/slpGTM/lxqnY1gxqYQpiHn3qHRJxckM9QBS6LRvGeo/t2eo4FTXNblEPTwbp/3z9/GCIw3vy0YWN8LnqCEYmrXQSrhB5zWoh6utpyl+vzw6EOLylH6oeAQYMVYZCbFmI1hndGFwdAvGkP0YOfSQmTEyVAKHaODwPiHSQi3S92RPiYDSVU191BCg6LFWGQvTTiC4k47M9I0IK0jUmApQrAkayiL1Ix0FTnpKRunvELkQonYI4B0NABiHMQ2zRuogj9RPxhLRdI05upnJKDoK6AHETroi85aeqGCjjV8KNO0Xs9ueqSH+6JNthFQXAUu32ekTN9lU+9bqnfkqycYeIQ3AgXUNBlesEDMuNqBmn6UxvKPL0pLtrxEF/nPluFbXly5WraAqR19BLI0i/H69+vr7aJeJg9GDo6YYMhnNotnWerw0QI4L0B6c2SkuroJufli1O/Ygnw8dpuoSGKmHjZhuEvsb1MEDUeM9vqVr6J4ps/BQz1ox4MrxZoMznCQjyBTfbWq2ADdzAtXneOjX1zE9ceRoz1onYxXxihqGtWj6CeRCmCfZWbS2iK2rqSzvVG8aMn8J8rA1xMHoEvmyd1E3fCmuMWz8gnhcVSEaIVDH7M1c2/rzuPqtpkXHSv5/l+A802D41ApyCCts8uM1wveFF+BA55/tTdPXzSe+sOuJgOJrbcjsnxzwQiTBC660xKcQ2yMZprhsbnIggWK8HVfC64L6Fqis5b69AibHDCG3vDLARR6pnnRoo7yAarq5+ve0PGSEHQ8AzZC0vACUdHKjiGrqrCF1aE8sGD2409dx+qdkO1Nl8NJqUpOxOhv2HhYHEbB3DpkEGhg7EIlFLo7bepLCmevZLOzdUGxhSR9PFQx8ou8V8B3SP85kq8/l4OED9FsIOxDV096e9IjcGLQjV9ppfkRRRVqeL28f+cDgZrJeQE4AbjR7GMxN57rrYcwKzhUVe34cD4+Pn8MwI3aFvZHuq5LcUXkeAOX547PdHQDqZDJY2mQyHw1H/5tf54q2BZHHDVUycrkLay2EJVfbhwMjAjW2R94zTjYwN/BhlzQsQMu23s8V4PJ/fYpvPx4vFbGqoSPa0jZdoRXyQgDhA23tyYGTgRgdCNWLUtn2xkuAorsaLnufpuu55oqi13QKDgRMAn4WiAHX258DI4lDVQ0ZxF/Xblc0V3z4DNDEIVTdk9H07X6QrGLQPRgvGtYjP3WuAEiZEjNBNnVom4mvrhSU3UG2oY/KKb6cav9GWjCDI4EhZq+ObVjwV3GepYX05MF8DF5EoH0UdkqZlAGQlT0quhwwLpzY0MF6Uf8IhrmyhDDNqoFaeDF99y1aRqLAdE6cFKsbD2SfrIi9qyoH9tzKoOY4bOhJD+ha4UlTKBayj6aCarQQPwtM5VH3JM2npSIA0bR8OFPRc15QCHmg6bU9WMd2pZYR4EJ2h+w6gDxsNHBlDetgdQNmyDVMFf7SVvFxqcorLQ8OjGrblY8djugB7L8JrPjE+bNiRAMnj4qoHMuSUfwqcFgZVEUJw/KEFsoyQqpqGbYe/YdlmRIdLCx/iHb66rLMI0sWuxL4M5NBFLeA49cFakcHfwhcwO2bDcOG/0NynjReZhMMVU2KH4F5UD8BpkddM0zDgP5FH5YgtggPfhXRPMjhzLHQl5ywxARR33Z5OmIcb8PinAOdw/wLnpUxqhpiYs60tSWnTYMSI2DjhX+K7jEnNmBOjOkpijrN8WWj+W+FIkySMii2CwgZg0l7Q/g+uVNBXj9KQ5AAAAABJRU5ErkJggg==;" vertex="1" parent="1">
          <mxGeometry x="823" y="291.19" width="135" height="135" as="geometry" />
        </mxCell>
      </root>
    </mxGraphModel>
  </diagram>
</mxfile>
